<svg xmlns="http://www.w3.org/2000/svg" xmlns:xlink="http://www.w3.org/1999/xlink" contentStyleType="text/css" data-diagram-type="CLASS" height="478px" preserveAspectRatio="none" style="width:976px;height:478px;background:#FFFFFF;" version="1.1" viewBox="0 0 976 478" width="976px" zoomAndPan="magnify"><defs/><g><!--class Iterator--><g class="entity" data-entity="Iterator" data-source-line="1" data-uid="ent0002" id="entity_Iterator"><rect fill="#F1F1F1" height="80.9766" rx="2.5" ry="2.5" style="stroke:#181818;stroke-width:0.5;" width="153.7637" x="553.2" y="10"/><ellipse cx="595.2369" cy="26" fill="#B4A7E5" rx="11" ry="11" style="stroke:#181818;stroke-width:1;"/><path d="M591.6646,22.2651 L591.6646,20.1069 L599.044,20.1069 L599.044,22.2651 L596.5787,22.2651 L596.5787,30.3418 L599.044,30.3418 L599.044,32.5 L591.6646,32.5 L591.6646,30.3418 L594.13,30.3418 L594.13,22.2651 Z " fill="#000000"/><text fill="#000000" font-family="sans-serif" font-size="14" font-style="italic" lengthAdjust="spacing" textLength="50.0938" x="615.2451" y="31.291">Iterator</text><rect fill="#FFFFFF" height="16.1328" style="stroke:#181818;stroke-width:1;stroke-dasharray:2.0,2.0;" width="9.5879" x="700.3758" y="7"/><text fill="#000000" font-family="sans-serif" font-size="12" font-style="italic" lengthAdjust="spacing" textLength="7.5879" x="701.3758" y="19.6016">T</text><line style="stroke:#181818;stroke-width:0.5;" x1="554.2" x2="705.9637" y1="42" y2="42"/><line style="stroke:#181818;stroke-width:0.5;" x1="554.2" x2="705.9637" y1="50" y2="50"/><ellipse cx="564.2" cy="63.7441" fill="#84BE84" rx="3" ry="3" style="stroke:#038048;stroke-width:1;"/><text fill="#000000" font-family="sans-serif" font-size="14" lengthAdjust="spacing" textLength="127.7637" x="573.2" y="67.5352">hasNext(): boolean</text><ellipse cx="564.2" cy="80.2324" fill="#84BE84" rx="3" ry="3" style="stroke:#038048;stroke-width:1;"/><text fill="#000000" font-family="sans-serif" font-size="14" lengthAdjust="spacing" textLength="57.1279" x="573.2" y="84.0234">next(): T</text></g><!--class GraphIterator--><g class="entity" data-entity="GraphIterator" data-source-line="6" data-uid="ent0003" id="entity_GraphIterator"><rect fill="#F1F1F1" height="146.9297" rx="2.5" ry="2.5" style="stroke:#181818;stroke-width:0.5;" width="470.1719" x="7" y="150.98"/><ellipse cx="192.2505" cy="166.98" fill="#ADD1B2" rx="11" ry="11" style="stroke:#181818;stroke-width:1;"/><path d="M194.7236,173.1231 Q194.1426,173.4219 193.5034,173.5713 Q192.8643,173.7207 192.1587,173.7207 Q189.6519,173.7207 188.332,172.0689 Q187.0122,170.417 187.0122,167.2959 Q187.0122,164.1665 188.332,162.5147 Q189.6519,160.8628 192.1587,160.8628 Q192.8643,160.8628 193.5117,161.0122 Q194.1592,161.1616 194.7236,161.4605 L194.7236,164.1831 Q194.0928,163.6021 193.4993,163.3323 Q192.9058,163.0625 192.2749,163.0625 Q190.9302,163.0625 190.2454,164.1292 Q189.5605,165.1958 189.5605,167.2959 Q189.5605,169.3877 190.2454,170.4544 Q190.9302,171.521 192.2749,171.521 Q192.9058,171.521 193.4993,171.2512 Q194.0928,170.9815 194.7236,170.4004 Z " fill="#000000"/><text fill="#000000" font-family="sans-serif" font-size="14" lengthAdjust="spacing" textLength="91.1709" x="212.7505" y="172.271">GraphIterator</text><line style="stroke:#181818;stroke-width:0.5;" x1="8" x2="476.1719" y1="182.98" y2="182.98"/><rect fill="none" height="6" style="stroke:#C82930;stroke-width:1;" width="6" x="15" y="193.7241"/><text fill="#000000" font-family="sans-serif" font-size="14" lengthAdjust="spacing" textLength="160.3438" x="27" y="200.5152">Queue&lt;Integer&gt; queue</text><rect fill="none" height="6" style="stroke:#C82930;stroke-width:1;" width="6" x="15" y="210.2124"/><text fill="#000000" font-family="sans-serif" font-size="14" lengthAdjust="spacing" textLength="139.6035" x="27" y="217.0034">Set&lt;Integer&gt; visited</text><rect fill="none" height="6" style="stroke:#C82930;stroke-width:1;" width="6" x="15" y="226.7007"/><text fill="#000000" font-family="sans-serif" font-size="14" lengthAdjust="spacing" textLength="246.0117" x="27" y="233.4917">Map&lt;Integer, List&lt;Integer&gt;&gt; graph</text><line style="stroke:#181818;stroke-width:0.5;" x1="8" x2="476.1719" y1="240.4448" y2="240.4448"/><ellipse cx="18" cy="254.189" fill="#84BE84" rx="3" ry="3" style="stroke:#038048;stroke-width:1;"/><text fill="#000000" font-family="sans-serif" font-size="14" lengthAdjust="spacing" textLength="444.1719" x="27" y="257.98">GraphIterator(Map&lt;Integer, List&lt;Integer&gt;&gt; graph, int startNode)</text><ellipse cx="18" cy="270.6773" fill="#84BE84" rx="3" ry="3" style="stroke:#038048;stroke-width:1;"/><text fill="#000000" font-family="sans-serif" font-size="14" lengthAdjust="spacing" textLength="127.7637" x="27" y="274.4683">hasNext(): boolean</text><ellipse cx="18" cy="287.1655" fill="#84BE84" rx="3" ry="3" style="stroke:#038048;stroke-width:1;"/><text fill="#000000" font-family="sans-serif" font-size="14" lengthAdjust="spacing" textLength="96.291" x="27" y="290.9566">next(): Integer</text></g><!--class TreeIterator--><g class="entity" data-entity="TreeIterator" data-source-line="15" data-uid="ent0004" id="entity_TreeIterator"><rect fill="#F1F1F1" height="130.4414" rx="2.5" ry="2.5" style="stroke:#181818;stroke-width:0.5;" width="235.7061" x="512.23" y="159.22"/><ellipse cx="585.6958" cy="175.22" fill="#ADD1B2" rx="11" ry="11" style="stroke:#181818;stroke-width:1;"/><path d="M588.169,181.3631 Q587.5879,181.6619 586.9488,181.8113 Q586.3096,181.9607 585.604,181.9607 Q583.0972,181.9607 581.7774,180.3089 Q580.4575,178.657 580.4575,175.5359 Q580.4575,172.4065 581.7774,170.7547 Q583.0972,169.1028 585.604,169.1028 Q586.3096,169.1028 586.9571,169.2522 Q587.6045,169.4016 588.169,169.7005 L588.169,172.4231 Q587.5381,171.8421 586.9446,171.5723 Q586.3511,171.3025 585.7202,171.3025 Q584.3755,171.3025 583.6907,172.3692 Q583.0059,173.4358 583.0059,175.5359 Q583.0059,177.6277 583.6907,178.6944 Q584.3755,179.761 585.7202,179.761 Q586.3511,179.761 586.9446,179.4912 Q587.5381,179.2215 588.169,178.6404 Z " fill="#000000"/><text fill="#000000" font-family="sans-serif" font-size="14" lengthAdjust="spacing" textLength="80.2744" x="606.1958" y="180.511">TreeIterator</text><line style="stroke:#181818;stroke-width:0.5;" x1="513.23" x2="746.9361" y1="191.22" y2="191.22"/><rect fill="none" height="6" style="stroke:#C82930;stroke-width:1;" width="6" x="520.23" y="201.9641"/><text fill="#000000" font-family="sans-serif" font-size="14" lengthAdjust="spacing" textLength="163.7412" x="532.23" y="208.7552">Stack&lt;TreeNode&gt; stack</text><line style="stroke:#181818;stroke-width:0.5;" x1="513.23" x2="746.9361" y1="215.7083" y2="215.7083"/><ellipse cx="523.23" cy="229.4524" fill="#84BE84" rx="3" ry="3" style="stroke:#038048;stroke-width:1;"/><text fill="#000000" font-family="sans-serif" font-size="14" lengthAdjust="spacing" textLength="187.708" x="532.23" y="233.2434">TreeIterator(TreeNode root)</text><rect fill="#F24D5C" height="6" style="stroke:#C82930;stroke-width:1;" width="6" x="520.23" y="242.9407"/><text fill="#000000" font-family="sans-serif" font-size="14" lengthAdjust="spacing" textLength="209.7061" x="532.23" y="249.7317">pushLeft(TreeNode node): void</text><ellipse cx="523.23" cy="262.429" fill="#84BE84" rx="3" ry="3" style="stroke:#038048;stroke-width:1;"/><text fill="#000000" font-family="sans-serif" font-size="14" lengthAdjust="spacing" textLength="127.7637" x="532.23" y="266.22">hasNext(): boolean</text><ellipse cx="523.23" cy="278.9173" fill="#84BE84" rx="3" ry="3" style="stroke:#038048;stroke-width:1;"/><text fill="#000000" font-family="sans-serif" font-size="14" lengthAdjust="spacing" textLength="96.291" x="532.23" y="282.7083">next(): Integer</text></g><!--class ArrayIterator--><g class="entity" data-entity="ArrayIterator" data-source-line="23" data-uid="ent0005" id="entity_ArrayIterator"><rect fill="#F1F1F1" height="130.4414" rx="2.5" ry="2.5" style="stroke:#181818;stroke-width:0.5;" width="187.1025" x="782.53" y="159.22"/><ellipse cx="828.7033" cy="175.22" fill="#ADD1B2" rx="11" ry="11" style="stroke:#181818;stroke-width:1;"/><path d="M831.1765,181.3631 Q830.5954,181.6619 829.9563,181.8113 Q829.3171,181.9607 828.6115,181.9607 Q826.1047,181.9607 824.7849,180.3089 Q823.4651,178.657 823.4651,175.5359 Q823.4651,172.4065 824.7849,170.7547 Q826.1047,169.1028 828.6115,169.1028 Q829.3171,169.1028 829.9646,169.2522 Q830.612,169.4016 831.1765,169.7005 L831.1765,172.4231 Q830.5456,171.8421 829.9521,171.5723 Q829.3586,171.3025 828.7278,171.3025 Q827.383,171.3025 826.6982,172.3692 Q826.0134,173.4358 826.0134,175.5359 Q826.0134,177.6277 826.6982,178.6944 Q827.383,179.761 828.7278,179.761 Q829.3586,179.761 829.9521,179.4912 Q830.5456,179.2215 831.1765,178.6404 Z " fill="#000000"/><text fill="#000000" font-family="sans-serif" font-size="14" lengthAdjust="spacing" textLength="86.2559" x="849.2033" y="180.511">ArrayIterator</text><line style="stroke:#181818;stroke-width:0.5;" x1="783.53" x2="968.6325" y1="191.22" y2="191.22"/><rect fill="none" height="6" style="stroke:#C82930;stroke-width:1;" width="6" x="790.53" y="201.9641"/><text fill="#000000" font-family="sans-serif" font-size="14" lengthAdjust="spacing" textLength="65.7412" x="802.53" y="208.7552">int[] array</text><rect fill="none" height="6" style="stroke:#C82930;stroke-width:1;" width="6" x="790.53" y="218.4524"/><text fill="#000000" font-family="sans-serif" font-size="14" lengthAdjust="spacing" textLength="60.334" x="802.53" y="225.2434">int index</text><line style="stroke:#181818;stroke-width:0.5;" x1="783.53" x2="968.6325" y1="232.1966" y2="232.1966"/><ellipse cx="793.53" cy="245.9407" fill="#84BE84" rx="3" ry="3" style="stroke:#038048;stroke-width:1;"/><text fill="#000000" font-family="sans-serif" font-size="14" lengthAdjust="spacing" textLength="161.1025" x="802.53" y="249.7317">ArrayIterator(int[] array)</text><ellipse cx="793.53" cy="262.429" fill="#84BE84" rx="3" ry="3" style="stroke:#038048;stroke-width:1;"/><text fill="#000000" font-family="sans-serif" font-size="14" lengthAdjust="spacing" textLength="127.7637" x="802.53" y="266.22">hasNext(): boolean</text><ellipse cx="793.53" cy="278.9173" fill="#84BE84" rx="3" ry="3" style="stroke:#038048;stroke-width:1;"/><text fill="#000000" font-family="sans-serif" font-size="14" lengthAdjust="spacing" textLength="96.291" x="802.53" y="282.7083">next(): Integer</text></g><!--class TreeNode--><g class="entity" data-entity="TreeNode" data-source-line="31" data-uid="ent0006" id="entity_TreeNode"><rect fill="#F1F1F1" height="113.9531" rx="2.5" ry="2.5" style="stroke:#181818;stroke-width:0.5;" width="142.2656" x="558.95" y="357.91"/><ellipse cx="593.9891" cy="373.91" fill="#ADD1B2" rx="11" ry="11" style="stroke:#181818;stroke-width:1;"/><path d="M596.4622,380.0531 Q595.8812,380.3519 595.242,380.5013 Q594.6028,380.6507 593.8973,380.6507 Q591.3904,380.6507 590.0706,378.9989 Q588.7508,377.347 588.7508,374.2259 Q588.7508,371.0965 590.0706,369.4447 Q591.3904,367.7928 593.8973,367.7928 Q594.6028,367.7928 595.2503,367.9422 Q595.8978,368.0916 596.4622,368.3905 L596.4622,371.1131 Q595.8313,370.5321 595.2378,370.2623 Q594.6443,369.9925 594.0135,369.9925 Q592.6688,369.9925 591.9839,371.0592 Q591.2991,372.1258 591.2991,374.2259 Q591.2991,376.3177 591.9839,377.3844 Q592.6688,378.451 594.0135,378.451 Q594.6443,378.451 595.2378,378.1812 Q595.8313,377.9115 596.4622,377.3304 Z " fill="#000000"/><text fill="#000000" font-family="sans-serif" font-size="14" lengthAdjust="spacing" textLength="65.7344" x="612.4422" y="379.201">TreeNode</text><line style="stroke:#181818;stroke-width:0.5;" x1="559.95" x2="700.2156" y1="389.91" y2="389.91"/><ellipse cx="569.95" cy="403.6541" fill="none" rx="3" ry="3" style="stroke:#038048;stroke-width:1;"/><text fill="#000000" font-family="sans-serif" font-size="14" lengthAdjust="spacing" textLength="41.4258" x="578.95" y="407.4452">int val</text><ellipse cx="569.95" cy="420.1424" fill="none" rx="3" ry="3" style="stroke:#038048;stroke-width:1;"/><text fill="#000000" font-family="sans-serif" font-size="14" lengthAdjust="spacing" textLength="92.3945" x="578.95" y="423.9334">TreeNode left</text><ellipse cx="569.95" cy="436.6307" fill="none" rx="3" ry="3" style="stroke:#038048;stroke-width:1;"/><text fill="#000000" font-family="sans-serif" font-size="14" lengthAdjust="spacing" textLength="102.5938" x="578.95" y="440.4217">TreeNode right</text><line style="stroke:#181818;stroke-width:0.5;" x1="559.95" x2="700.2156" y1="447.3748" y2="447.3748"/><ellipse cx="569.95" cy="461.119" fill="#84BE84" rx="3" ry="3" style="stroke:#038048;stroke-width:1;"/><text fill="#000000" font-family="sans-serif" font-size="14" lengthAdjust="spacing" textLength="116.2656" x="578.95" y="464.91">TreeNode(int val)</text></g><!--reverse link Iterator to GraphIterator--><g class="link" data-entity-1="Iterator" data-entity-2="GraphIterator" data-source-line="38" data-uid="lnk7" id="link_Iterator_GraphIterator"><path codeLine="38" d="M536.5138,92.9634 C494.5238,111.5734 457.34,128.05 406.48,150.59" fill="none" id="Iterator-backto-GraphIterator" style="stroke:#181818;stroke-width:1;stroke-dasharray:7.0,7.0;"/><polygon fill="none" points="552.97,85.67,534.0827,87.478,538.9449,98.4488,552.97,85.67" style="stroke:#181818;stroke-width:1;"/></g><!--reverse link Iterator to TreeIterator--><g class="link" data-entity-1="Iterator" data-entity-2="TreeIterator" data-source-line="39" data-uid="lnk8" id="link_Iterator_TreeIterator"><path codeLine="39" d="M630.09,109.37 C630.09,129.41 630.09,136.2 630.09,158.86" fill="none" id="Iterator-backto-TreeIterator" style="stroke:#181818;stroke-width:1;stroke-dasharray:7.0,7.0;"/><polygon fill="none" points="630.09,91.37,624.09,109.37,636.09,109.37,630.09,91.37" style="stroke:#181818;stroke-width:1;"/></g><!--reverse link Iterator to ArrayIterator--><g class="link" data-entity-1="Iterator" data-entity-2="ArrayIterator" data-source-line="40" data-uid="lnk9" id="link_Iterator_ArrayIterator"><path codeLine="40" d="M701.8932,101.6823 C730.5632,121.7223 751.27,136.2 783.7,158.86" fill="none" id="Iterator-backto-ArrayIterator" style="stroke:#181818;stroke-width:1;stroke-dasharray:7.0,7.0;"/><polygon fill="none" points="687.14,91.37,698.4557,106.6,705.3306,96.7646,687.14,91.37" style="stroke:#181818;stroke-width:1;"/></g><!--link TreeIterator to TreeNode--><g class="link" data-entity-1="TreeIterator" data-entity-2="TreeNode" data-source-line="42" data-uid="lnk10" id="link_TreeIterator_TreeNode"><path codeLine="42" d="M630.09,290.03 C630.09,311.98 630.09,330.31 630.09,351.56" fill="none" id="TreeIterator-to-TreeNode" style="stroke:#181818;stroke-width:1;"/><polygon fill="#181818" points="630.09,357.56,634.09,348.56,630.09,352.56,626.09,348.56,630.09,357.56" style="stroke:#181818;stroke-width:1;"/></g><!--SRC=[dLB1ReCm3BtdAtm4hVG3AeIqqrIfgrILMxM31ov4HOGb1dNQzk_320hffL9lyNlsivzZNJFPCsO4s_w1R6oS9l2Z05vAT7kwSX1kuDEOYh0Mj1wXLFqfbLNe7BnPRCgfVAYD3Ysr56zxyO9i0byI2duadj5EEysK2_wEpOIlOAVTd9L08VBIskiJF2nPWQuP7AFblSafVEnf59YTfPR8DtPap2wnuAAPY7ns4OrbQZ3nO8rXQHmrhIjtTEQPgcMc3NH6vqzCzcejVlkZzMvF7u12Z66_W9okekEb1ulCPxSoM1ZEHFfqM4qx68YgT-e1LXUbXmHZMIYoDn_nxthjdzCTjzpo7ULPLChxkYXARbF_0m00]--></g></svg>